<?xml version="1.0" encoding="UTF-8"?> <svg xmlns="http://www.w3.org/2000/svg" xmlns:xlink="http://www.w3.org/1999/xlink" id="Group_236" data-name="Group 236" width="80.137" height="71.987" viewBox="0 0 80.137 71.987"><defs><clipPath id="clip-path"><rect id="Rectangle_17" data-name="Rectangle 17" width="80.137" height="71.987" fill="none"></rect></clipPath></defs><g id="Group_235" data-name="Group 235" clip-path="url(#clip-path)"><path id="Path_6034" data-name="Path 6034" d="M78.669,38.6C75.008,56.211,58.08,70.487,39.312,70.487S5.13,56.211,1.469,38.6" fill="none" stroke="#fff" stroke-width="3"></path><path id="Path_6035" data-name="Path 6035" d="M1.469,38.6H21.94c13.405,0,24.776,5.87,36.256,19.181" fill="none" stroke="#fff" stroke-width="3"></path><path id="Path_6036" data-name="Path 6036" d="M1.469,38.6c12.333,0,33.367,8.454,44.539,22.977" fill="none" stroke="#fff" stroke-width="3"></path><path id="Path_6037" data-name="Path 6037" d="M1.469,38.6c5.542,0,22.488,12.629,31.286,25.841" fill="none" stroke="#fff" stroke-width="3"></path><path id="Path_6038" data-name="Path 6038" d="M48,41.016A54.958,54.958,0,0,1,64.929,38.6H78.668" fill="none" stroke="#fff" stroke-width="3"></path><path id="Path_6039" data-name="Path 6039" d="M78.669,38.6H75.28c-4.447,0-11.908,3.193-18.653,9.3" fill="none" stroke="#fff" stroke-width="3"></path><line id="Line_1" data-name="Line 1" y1="8.391" transform="translate(40.069 0)" fill="none" stroke="#fff" stroke-width="3"></line><line id="Line_2" data-name="Line 2" x1="1.892" y1="7.061" transform="translate(29.824 1.829)" fill="none" stroke="#fff" stroke-width="3"></line><line id="Line_3" data-name="Line 3" x1="3.655" y1="6.331" transform="translate(20.512 5.687)" fill="none" stroke="#fff" stroke-width="3"></line><line id="Line_4" data-name="Line 4" x1="5.169" y1="5.169" transform="translate(12.515 11.823)" fill="none" stroke="#fff" stroke-width="3"></line><line id="Line_5" data-name="Line 5" x1="6.331" y1="3.654" transform="translate(6.379 19.821)" fill="none" stroke="#fff" stroke-width="3"></line><line id="Line_6" data-name="Line 6" x1="7.061" y1="1.891" transform="translate(2.521 29.133)" fill="none" stroke="#fff" stroke-width="3"></line><line id="Line_7" data-name="Line 7" y1="7.061" x2="1.892" transform="translate(47.919 1.829)" fill="none" stroke="#fff" stroke-width="3"></line><line id="Line_8" data-name="Line 8" y1="6.331" x2="3.655" transform="translate(55.469 5.687)" fill="none" stroke="#fff" stroke-width="3"></line><line id="Line_9" data-name="Line 9" y1="5.169" x2="5.169" transform="translate(61.952 11.823)" fill="none" stroke="#fff" stroke-width="3"></line><line id="Line_10" data-name="Line 10" y1="3.654" x2="6.331" transform="translate(66.926 19.821)" fill="none" stroke="#fff" stroke-width="3"></line><line id="Line_11" data-name="Line 11" y1="1.891" x2="7.061" transform="translate(70.053 29.133)" fill="none" stroke="#fff" stroke-width="3"></line><path id="Path_6040" data-name="Path 6040" d="M15.8,31.886a25.183,25.183,0,0,1,48.538,0" fill="none" stroke="#fff" stroke-width="3"></path></g></svg> 