<?xml version="1.0" encoding="UTF-8"?> <svg xmlns="http://www.w3.org/2000/svg" xmlns:xlink="http://www.w3.org/1999/xlink" width="86.046" height="70.865" viewBox="0 0 86.046 70.865"><defs><clipPath id="clip-path"><rect id="Rectangle_19" data-name="Rectangle 19" width="86.046" height="70.865" transform="translate(0 0)" fill="none"></rect></clipPath></defs><g id="Group_239" data-name="Group 239" transform="translate(0 0)" clip-path="url(#clip-path)"><path id="Path_6049" data-name="Path 6049" d="M86.047,39.753c0-11.213-8.316-19.811-19.635-20.67C65.421,8.58,55.113,0,43.023,0s-22.4,8.58-23.389,19.083C8.316,19.942,0,28.54,0,39.753,0,49.57,6.8,56.967,17.4,58.83a33.29,33.29,0,0,0,51.243,0c10.6-1.862,17.4-9.259,17.4-19.076M15.723,45.008c13.263.909,24.237,10.608,25.267,22.331C27.725,66.43,16.751,56.73,15.723,45.008M35.212,49.3a23.711,23.711,0,0,1,7.811-17.493A23.7,23.7,0,0,1,50.833,49.3a28.236,28.236,0,0,0-7.81,10.486A28.261,28.261,0,0,0,35.212,49.3m9.845,18.04c1.03-11.723,12-21.422,25.267-22.331-1.03,11.722-12,21.422-25.267,22.331M71.452,54.5A24.263,24.263,0,0,0,74.313,43.21a1.852,1.852,0,0,0-1.956-1.728A33.6,33.6,0,0,0,54.6,46.547a27.171,27.171,0,0,0-8.854-17.224c-.449-.413-.924-.826-1.4-1.213a2.147,2.147,0,0,0-2.646,0c-.477.387-.954.8-1.4,1.214a27.161,27.161,0,0,0-8.853,17.223,33.6,33.6,0,0,0-17.756-5.065,1.854,1.854,0,0,0-1.956,1.728A24.272,24.272,0,0,0,14.594,54.5C7.987,52.1,3.911,46.655,3.911,39.753c0-9.854,7.567-17.284,17.6-17.284a1.853,1.853,0,0,0,1.956-1.728c0-9.369,8.957-17.285,19.556-17.285s19.556,7.916,19.556,17.285a1.852,1.852,0,0,0,1.956,1.728c10.033,0,17.6,7.43,17.6,17.284,0,6.9-4.077,12.348-10.683,14.745" fill="#fff"></path></g></svg> 