<?xml version="1.0" encoding="UTF-8"?> <svg xmlns="http://www.w3.org/2000/svg" xmlns:xlink="http://www.w3.org/1999/xlink" width="71.306" height="71.133" viewBox="0 0 71.306 71.133"><defs><clipPath id="clip-path"><rect id="Rectangle_18" data-name="Rectangle 18" width="71.306" height="71.133" transform="translate(0 0)" fill="none"></rect></clipPath></defs><g id="Group_238" data-name="Group 238" transform="translate(0 0)"><g id="Group_237" data-name="Group 237" clip-path="url(#clip-path)"><path id="Path_6041" data-name="Path 6041" d="M.076,41.761c23.227,0,40.261,7.742,52.649,27.873" fill="none" stroke="#fff" stroke-width="3"></path><line id="Line_12" data-name="Line 12" x1="71.23" transform="translate(0.076 41.761)" fill="none" stroke="#fff" stroke-width="3"></line><line id="Line_13" data-name="Line 13" x1="26.324" transform="translate(44.982 51.052)" fill="none" stroke="#fff" stroke-width="3"></line><line id="Line_14" data-name="Line 14" x1="17.033" transform="translate(54.273 60.343)" fill="none" stroke="#fff" stroke-width="3"></line><line id="Line_15" data-name="Line 15" x1="13.936" transform="translate(57.37 69.633)" fill="none" stroke="#fff" stroke-width="3"></line><path id="Path_6042" data-name="Path 6042" d="M.076,49.5s27.163-.839,41.809,20.13" fill="none" stroke="#fff" stroke-width="3"></path><path id="Path_6043" data-name="Path 6043" d="M.076,57.246s17.872.9,29.421,12.388" fill="none" stroke="#fff" stroke-width="3"></path><path id="Path_6044" data-name="Path 6044" d="M.076,64.988s9.077.416,14.711,4.645" fill="none" stroke="#fff" stroke-width="3"></path><path id="Path_6045" data-name="Path 6045" d="M24.535,11.043C31.84,16.034,35.69,22.478,35.69,29.831V41.373" fill="none" stroke="#fff" stroke-width="3"></path><path id="Path_6046" data-name="Path 6046" d="M31.017,9.239C30.574,5.786,28.214,1.5,19.951,1.5c-4.837,0-9.444,3.148-9.444,3.148C11.885,9.173,16.951,18.814,23.1,18.814a7.5,7.5,0,0,0,6.695-3.306" fill="none" stroke="#fff" stroke-width="3"></path><path id="Path_6047" data-name="Path 6047" d="M49.709,9.263c-9.158,5.2-14.018,12.308-14.018,20.568v11.93" fill="none" stroke="#fff" stroke-width="3"></path><path id="Path_6048" data-name="Path 6048" d="M41.1,6.613C42.327,3.935,45.2,1.5,51.431,1.5c4.837,0,9.443,3.148,9.443,3.148C59.5,9.173,54.431,18.813,48.283,18.813a7.493,7.493,0,0,1-6.695-3.306" fill="none" stroke="#fff" stroke-width="3"></path><line id="Line_16" data-name="Line 16" y1="7.742" transform="translate(9.222 34.019)" fill="none" stroke="#fff" stroke-width="3"></line><line id="Line_17" data-name="Line 17" y1="10.839" transform="translate(21.706 30.922)" fill="none" stroke="#fff" stroke-width="3"></line><line id="Line_18" data-name="Line 18" y1="10.839" transform="translate(49.482 30.922)" fill="none" stroke="#fff" stroke-width="3"></line><line id="Line_19" data-name="Line 19" y1="7.742" transform="translate(61.967 34.019)" fill="none" stroke="#fff" stroke-width="3"></line></g></g></svg> 