<?xml version="1.0" encoding="UTF-8"?> <svg xmlns="http://www.w3.org/2000/svg" xmlns:xlink="http://www.w3.org/1999/xlink" id="Group_81" data-name="Group 81" width="80.227" height="66.242" viewBox="0 0 80.227 66.242"><defs><clipPath id="clip-path"><rect id="Rectangle_4" data-name="Rectangle 4" width="80.227" height="66.242" fill="none"></rect></clipPath></defs><g id="Group_53" data-name="Group 53" clip-path="url(#clip-path)"><path id="Path_5981" data-name="Path 5981" d="M77.184,38.28s-2.519-4.594-10-6.453L70.8,30.384s9.405-2.771,6.8-17.636S56.271.486,51.9.149,0,.149,0,.149V12.243H26.96V26.606H7.14V38.615H26.96V66.242H58.578c4.234,0,15.69-.884,19.7-9.987C83.231,45,77.184,38.28,77.184,38.28m-15.316-18.9c-.209,8.569-9.951,7.938-9.951,7.938H44.064V11.443h.293c8.652-.211,17.722-.631,17.511,7.935M64.052,47C63.465,54.936,53.8,54.854,53.8,54.854H44.064V37.508s7.853-.209,9.7,0,3.907.631,3.907.631,6.969.924,6.382,8.862" transform="translate(0 0)" fill="#fff"></path></g></svg> 